PathFileType        4      (X/Y/Z)      C:\Users\ibrah\OneDrive - KTH\Model Validation - Orthoload\rmr-solver-1.0 - original\rmr-solver-1.0\ExperimentalData\S8R\trc\transformed_MSffkg1.trc         
DataRate	CameraRate	NumFrames	NumMarkers	Units	OrigDataRate	OrigDataStartFrame	OrigNumFrames
50.0	50.0	4	27	mm	50.0	142	566
Frame#	Time	IJ			PX			C7			T8			SC			AA			TS			AI			PC			ACv			ACd			GH			EM			EL			EM2			EL2			US			RS			US2			RS2			MCP2			MCP5			SCREWAA			SCREWTS			SCREWAI			ACvloc			ACdloc			
		X1	Y1	Z1	X2	Y2	Z2	X3	Y3	Z3	X4	Y4	Z4	X5	Y5	Z5	X6	Y6	Z6	X7	Y7	Z7	X8	Y8	Z8	X9	Y9	Z9	X10	Y10	Z10	X11	Y11	Z11	X12	Y12	Z12	X13	Y13	Z13	X14	Y14	Z14	X15	Y15	Z15	X16	Y16	Z16	X17	Y17	Z17	X18	Y18	Z18	X19	Y19	Z19	X20	Y20	Z20	X21	Y21	Z21	X22	Y22	Z22	X23	Y23	Z23	X24	Y24	Z24	X25	Y25	Z25	X26	Y26	Z26	X27	Y27	Z27	
142	2.82	-84.49910428886747	35.14605079597283	8.290855457212675	5.142775304294666	-83.67941017370876	20.27246955618265	-233.3991684665121	81.56760686726906	2.014041479678504	-241.7304722038313	-129.4605744557127	14.58751857644397	-93.93444587016955	43.7117989748296	31.6471474917564	-211.1713547229241	50.07466694546245	169.7695409048878	-241.7401716139993	-23.58361913967762	110.3928658354368	-129.3845041456526	-136.324950162443	158.2199363658144	-163.894183448185	74.11855636045188	104.6931521915038	-218.805443120046	76.04614390423129	134.3451241078853	-218.805443120046	76.04614390423129	134.3451241078853	-153.8213504965617	25.65578651197193	183.8085382377935	72.22628181466382	181.6765359155499	278.2475874553863	20.30380014884794	210.9304953130938	318.5569108010628													99.58950416939518	413.0122646751699	306.7998479534394	135.1298372882312	400.4592046773365	351.619391819308																						
143	2.84	-84.84750084312137	35.10645427443542	8.851143971166751	3.637218644136482	-84.89191176443225	19.2608896123599	-233.3776896909167	83.29506339341073	4.074982447532889	-243.9381371751531	-127.8474397889591	15.15892089055481	-93.99866533455625	43.62589100026441	32.35240817768826	-210.7776712941934	49.62460693790241	170.8910844711354	-242.5395175675429	-23.31442708938622	111.2652334803804	-131.4421273210583	-137.7316669817536	158.0066732285147	-163.4746765498246	73.4070676034498	105.7383883117653	-218.2279713885966	75.87885580195974	135.638557650673	-218.2279713885966	75.87885580195974	135.638557650673	-153.518974416444	24.50939756749288	184.1552233544512	76.76606021300735	174.4945924219914	278.0337221980631	25.8815960703433	204.4323148410525	319.1505592554496													110.8354668101837	404.0325961921735	306.767529367689	146.1359647725611	390.5082408449932	351.4924830728705																						
144	2.86	-85.25239066788306	34.92382744682607	9.293818853495281	2.268760653952893	-85.99866591682739	18.49337321646262	-233.4511122261096	84.52977309505934	5.710030122252551	-245.8312218252507	-126.6673264069035	15.70215664431184	-94.17400837449382	43.41285620323006	32.90558374438721	-210.350914368335	49.10547791061705	172.0784118292063	-243.3631438763841	-23.04646221468906	112.1899252436296	-133.6229518232271	-139.2134750255144	157.7630746366998	-163.02732902313	72.62177102638721	106.8458918009783	-217.603271568294	75.65949048427964	137.0119872965278	-217.603271568294	75.65949048427964	137.0119872965278	-153.2277056856317	23.25305957549741	184.5276580323452	81.38625718249965	166.7231693194435	277.7861147350183	31.61733540441027	197.3454275298363	319.7472887141166													122.3966917910406	394.26736127903	306.7856692302296	157.4024146277378	379.7169982652778	351.4139033447352																						
145	2.88	-85.70397548046483	34.61449428889112	9.623042476527504	1.035728963364279	-86.99922249597654	17.9504281989726	-233.6078918372924	85.31021084895114	6.945451195061768	-247.423410611438	-125.885882833099	16.22032779001792	-94.44674064354211	43.08827368624629	33.31317818969345	-209.8836856399633	48.52421174461808	173.3257988555696	-244.1959104837003	-22.77439724907881	113.1637813400721	-135.9107201303231	-140.7534501088292	157.4934409307659	-162.5439856510498	71.77011733416404	108.01055343715	-216.9234347011425	75.39278290523274	138.4585906065873	-216.9234347011425	75.39278290523274	138.4585906065873	-152.9492611965178	21.89970704046894	184.9333334306974	86.0402063590944	158.3964008259128	277.4924926448114	37.46183301612007	189.6981995909659	320.3287788016989													134.1743188984084	383.7603235007688	306.8789798588498	168.8305782265901	368.1278202360209	351.4034388288068																						
